<?xml version="1.0" encoding="UTF-8" standalone="no"?>
<!-- Generator: Adobe Illustrator 19.0.0, SVG Export Plug-In . SVG Version: 6.00 Build 0)  -->

<svg
   xmlns:dc="http://purl.org/dc/elements/1.1/"
   xmlns:cc="http://creativecommons.org/ns#"
   xmlns:rdf="http://www.w3.org/1999/02/22-rdf-syntax-ns#"
   xmlns:svg="http://www.w3.org/2000/svg"
   xmlns="http://www.w3.org/2000/svg"
   xmlns:sodipodi="http://sodipodi.sourceforge.net/DTD/sodipodi-0.dtd"
   xmlns:inkscape="http://www.inkscape.org/namespaces/inkscape"
   version="1.1"
   id="Layer_1"
   x="0px"
   y="0px"
   viewBox="0 0 408.788 408.788"
   style="enable-background:new 0 0 408.788 408.788;"
   xml:space="preserve"
   sodipodi:docname="facebook-circle.svg"
   inkscape:version="0.92.4 (5da689c313, 2019-01-14)"><metadata
   id="metadata39"><rdf:RDF><cc:Work
       rdf:about=""><dc:format>image/svg+xml</dc:format><dc:type
         rdf:resource="http://purl.org/dc/dcmitype/StillImage" /><dc:title></dc:title></cc:Work></rdf:RDF></metadata><defs
   id="defs37"><mask
     maskUnits="userSpaceOnUse"
     id="mask1006"><circle
       style="fill:#a95993;fill-opacity:1;stroke:none;stroke-opacity:1;paint-order:stroke markers fill"
       id="circle1008"
       cx="-351.62698"
       cy="181.87601"
       r="207.85831" /></mask><mask
     maskUnits="userSpaceOnUse"
     id="mask1083"><circle
       style="fill:#a95993;fill-opacity:1;stroke:none;stroke-opacity:1;paint-order:stroke markers fill"
       id="circle1081"
       cx="-351.62698"
       cy="181.87601"
       r="207.85831" /></mask></defs><sodipodi:namedview
   pagecolor="#ffffff"
   bordercolor="#666666"
   borderopacity="1"
   objecttolerance="10"
   gridtolerance="10"
   guidetolerance="10"
   inkscape:pageopacity="0"
   inkscape:pageshadow="2"
   inkscape:window-width="1366"
   inkscape:window-height="705"
   id="namedview35"
   showgrid="false"
   inkscape:zoom="0.57731637"
   inkscape:cx="161.37138"
   inkscape:cy="191.60969"
   inkscape:window-x="-8"
   inkscape:window-y="-8"
   inkscape:window-maximized="1"
   inkscape:current-layer="Layer_1" />

<g
   id="g4">
</g>
<g
   id="g6">
</g>
<g
   id="g8">
</g>
<g
   id="g10">
</g>
<g
   id="g12">
</g>
<g
   id="g14">
</g>
<g
   id="g16">
</g>
<g
   id="g18">
</g>
<g
   id="g20">
</g>
<g
   id="g22">
</g>
<g
   id="g24">
</g>
<g
   id="g26">
</g>
<g
   id="g28">
</g>
<g
   id="g30">
</g>
<g
   id="g32">
</g>
<path
   style="fill:#475993;fill-opacity:1;stroke:none;stroke-width:1.73215246;stroke-opacity:1;paint-order:stroke markers fill"
   d="m 185.96795,411.43817 c -24.21188,-2.49756 -47.30182,-9.28174 -70.15218,-20.6118 C 92.435557,379.23357 79.998997,370.4012 61.590817,352.31615 31.098577,322.35912 10.421077,283.30459 3.1736668,241.98103 c -3.26577006,-18.62094 -3.26577006,-54.54176 0,-73.16271 C 10.421077,127.49477 31.098577,88.440221 61.590817,58.483206 79.998997,40.398141 92.435557,31.565774 115.81577,19.972986 224.85664,-34.093577 357.64479,17.978137 400.42903,131.5816 c 9.42239,25.01892 12.98905,44.92429 13.07165,72.952 0.1701,57.74517 -19.96468,106.90087 -60.33181,147.28951 -43.87273,43.8961 -105.7406,65.95494 -167.20092,59.61506 z m 41.15762,-93.88161 0.45204,-72.31737 h 24.11837 c 24.71501,0 31.77489,-1.22545 33.53862,-5.82163 0.55352,-1.44248 2.37052,-14.46719 4.03777,-28.94382 l 3.03137,-26.32111 -3.99345,-3.2337 c -3.53546,-2.86284 -7.24914,-3.23369 -32.38205,-3.23369 h -28.38863 l 0.0255,-25.54926 c 0.0275,-27.60849 0.95409,-31.38779 9.19484,-37.50734 4.20309,-3.1212 7.85277,-3.71595 25.98229,-4.23406 15.99137,-0.45701 21.82538,-1.25501 24.12356,-3.29973 2.6044,-2.31715 3.03127,-5.99399 3.03127,-26.109194 0,-31.436607 1.85299,-29.754749 -32.74632,-29.721956 -39.81098,0.03773 -54.47856,4.296126 -72.05549,20.919649 C 167.40642,88.91279 161.795,107.71266 161.74793,150.40383 l -0.0301,27.28141 h -19.91975 c -27.63812,0 -26.84836,-0.98383 -26.84836,33.44591 0,20.14755 0.58974,27.32496 2.45509,29.87963 2.14995,2.94443 5.05634,3.43418 23.38406,3.94044 l 20.92896,0.5781 v 72.64355 72.64357 l 32.47786,-0.47125 32.47786,-0.47127 z"
   id="path1158"
   inkscape:connector-curvature="0" /></svg>